<?xml version="1.0" standalone="no"?>
<!DOCTYPE svg PUBLIC "-//W3C//DTD SVG 20010904//EN" "http://www.w3.org/TR/2001/REC-SVG-20010904/DTD/svg10.dtd">
<svg version="1.0" xmlns="http://www.w3.org/2000/svg" width="512.000000pt" height="512.000000pt"
    viewBox="0 0 512.000000 512.000000" preserveAspectRatio="xMidYMid meet">
    <g transform="translate(0.000000,512.000000) scale(0.100000,-0.100000)" fill="#000000" stroke="none">
        <path d="M220 4903 c0 -5 410 -591 910 -1303 501 -712 908 -1300 905 -1307 -2
-7 -411 -475 -907 -1039 -497 -565 -905 -1031 -906 -1035 -2 -5 88 -9 200 -9
l203 0 800 910 c439 501 801 910 805 910 3 0 292 -410 643 -910 l638 -910 695
0 c382 0 694 3 694 8 0 4 -426 612 -945 1352 -520 740 -944 1348 -942 1352 1
3 387 444 857 978 470 534 861 980 869 991 13 19 9 19 -191 19 l-205 0 -534
-607 c-294 -334 -636 -723 -760 -865 l-227 -256 -607 864 -606 864 -695 0
c-382 0 -694 -3 -694 -7z m2650 -2341 c800 -1120 1456 -2042 1458 -2049 3 -10
-61 -13 -306 -13 -307 0 -309 0 -329 23 -11 12 -667 929 -1458 2037 -791 1108
-1442 2021 -1448 2028 -7 9 56 12 309 12 l319 -1 1455 -2037z" />
    </g>
</svg>